<svg xmlns="http://www.w3.org/2000/svg" viewBox="49 54 576 508" fill="#b9e1f4" role="img"><title>UdonSharp</title><path d="M348 54h2v1H348ZM346 55h6v1H346ZM345 56h9v1H345ZM344 57h11v1H344ZM344 58h12v1H344ZM343 59h13v1H343ZM342 60h15v1H342ZM341 61h18v1H341ZM340 62h20v1H340ZM339 63h22v1H339ZM339 64h22v1H339ZM338 65h24v1H338ZM337 66h25v1H337ZM336 67h26v1H336ZM335 68h30v1H335ZM335 69h32v1H335ZM334 70h34v1H334ZM333 71h36v1H333ZM332 72h38v1H332ZM331 73h40v1H331ZM330 74h41v1H330ZM330 75h43v1H330ZM329 76h45v1H329ZM328 77h47v1H328ZM327 78h48v1H327ZM326 79h50v1H326ZM325 80h51v1H325ZM325 81h51v1H325ZM324 82h52v1H324ZM323 83h52v1H323ZM322 84h53v1H322ZM321 85h53v1H321ZM320 86h53v1H320ZM320 87h53v1H320ZM319 88h53v1H319ZM318 89h53v1H318ZM317 90h54v1H317ZM316 91h54v1H316ZM316 92h53v1H316ZM315 93h54v1H315ZM314 94h54v1H314ZM313 95h54v1H313ZM312 96h55v1H312ZM311 97h55v1H311ZM311 98h55v1H311ZM310 99h55v1H310ZM309 100h55v1H309ZM308 101h56v1H308ZM373 101h28v1H373ZM307 102h106v1H307ZM307 103h113v1H307ZM306 104h121v1H306ZM305 105h127v1H305ZM304 106h133v1H304ZM303 107h138v1H303ZM302 108h143v1H302ZM302 109h147v1H302ZM301 110h151v1H301ZM300 111h155v1H300ZM299 112h159v1H299ZM298 113h163v1H298ZM297 114h167v1H297ZM297 115h170v1H297ZM296 116h173v1H296ZM295 117h30v1H295ZM326 117h146v1H326ZM294 118h30v1H294ZM325 118h149v1H325ZM293 119h30v1H293ZM324 119h153v1H324ZM292 120h31v1H292ZM324 120h155v1H324ZM292 121h30v1H292ZM323 121h158v1H323ZM291 122h30v1H291ZM322 122h161v1H322ZM289 123h31v1H289ZM321 123h164v1H321ZM287 124h33v1H287ZM321 124h166v1H321ZM285 125h34v1H285ZM320 125h169v1H320ZM283 126h35v1H283ZM319 126h172v1H319ZM281 127h36v1H281ZM319 127h174v1H319ZM280 128h37v1H280ZM318 128h177v1H318ZM278 129h38v1H278ZM317 129h180v1H317ZM276 130h39v1H276ZM317 130h182v1H317ZM274 131h40v1H274ZM316 131h184v1H316ZM273 132h40v1H273ZM315 132h187v1H315ZM271 133h42v1H271ZM315 133h189v1H315ZM269 134h43v1H269ZM314 134h191v1H314ZM268 135h43v1H268ZM313 135h194v1H313ZM266 136h44v1H266ZM313 136h196v1H313ZM265 137h45v1H265ZM312 137h198v1H312ZM263 138h46v1H263ZM311 138h201v1H311ZM262 139h46v1H262ZM311 139h202v1H311ZM260 140h47v1H260ZM310 140h28v1H310ZM339 140h176v1H339ZM259 141h48v1H259ZM309 141h207v1H309ZM257 142h49v1H257ZM308 142h29v1H308ZM338 142h180v1H338ZM256 143h49v1H256ZM308 143h28v1H308ZM337 143h182v1H337ZM255 144h49v1H255ZM307 144h213v1H307ZM253 145h50v1H253ZM306 145h29v1H306ZM336 145h186v1H336ZM252 146h51v1H252ZM306 146h28v1H306ZM335 146h188v1H335ZM251 147h51v1H251ZM305 147h29v1H305ZM335 147h189v1H335ZM249 148h52v1H249ZM304 148h29v1H304ZM334 148h192v1H334ZM248 149h52v1H248ZM304 149h29v1H304ZM334 149h193v1H334ZM247 150h53v1H247ZM303 150h29v1H303ZM333 150h195v1H333ZM246 151h53v1H246ZM302 151h29v1H302ZM332 151h197v1H332ZM244 152h54v1H244ZM302 152h29v1H302ZM332 152h199v1H332ZM243 153h54v1H243ZM301 153h29v1H301ZM331 153h201v1H331ZM242 154h55v1H242ZM300 154h29v1H300ZM331 154h202v1H331ZM241 155h55v1H241ZM299 155h30v1H299ZM330 155h204v1H330ZM240 156h55v1H240ZM299 156h29v1H299ZM330 156h205v1H330ZM238 157h56v1H238ZM298 157h29v1H298ZM329 157h57v1H329ZM399 157h138v1H399ZM237 158h56v1H237ZM297 158h30v1H297ZM328 158h45v1H328ZM412 158h126v1H412ZM236 159h57v1H236ZM297 159h29v1H297ZM328 159h4v1H328ZM335 159h30v1H335ZM420 159h119v1H420ZM235 160h57v1H235ZM296 160h29v1H296ZM327 160h2v1H327ZM335 160h24v1H335ZM425 160h115v1H425ZM234 161h57v1H234ZM295 161h30v1H295ZM334 161h20v1H334ZM430 161h111v1H430ZM233 162h57v1H233ZM295 162h29v1H295ZM334 162h16v1H334ZM434 162h108v1H434ZM232 163h58v1H232ZM294 163h29v1H294ZM333 163h13v1H333ZM438 163h105v1H438ZM231 164h58v1H231ZM293 164h30v1H293ZM333 164h10v1H333ZM442 164h102v1H442ZM230 165h58v1H230ZM293 165h29v1H293ZM333 165h7v1H333ZM445 165h100v1H445ZM229 166h58v1H229ZM292 166h30v1H292ZM334 166h2v1H334ZM448 166h98v1H448ZM228 167h59v1H228ZM291 167h30v1H291ZM451 167h96v1H451ZM227 168h59v1H227ZM290 168h30v1H290ZM454 168h94v1H454ZM226 169h59v1H226ZM290 169h30v1H290ZM456 169h93v1H456ZM225 170h59v1H225ZM289 170h30v1H289ZM459 170h91v1H459ZM224 171h59v1H224ZM288 171h30v1H288ZM461 171h90v1H461ZM223 172h60v1H223ZM288 172h30v1H288ZM463 172h89v1H463ZM222 173h60v1H222ZM287 173h30v1H287ZM466 173h87v1H466ZM221 174h60v1H221ZM286 174h30v1H286ZM468 174h86v1H468ZM220 175h60v1H220ZM286 175h30v1H286ZM470 175h85v1H470ZM219 176h61v1H219ZM285 176h30v1H285ZM472 176h84v1H472ZM219 177h60v1H219ZM284 177h30v1H284ZM474 177h83v1H474ZM218 178h60v1H218ZM284 178h30v1H284ZM476 178h82v1H476ZM217 179h60v1H217ZM283 179h30v1H283ZM477 179h82v1H477ZM216 180h61v1H216ZM282 180h30v1H282ZM479 180h80v1H479ZM215 181h61v1H215ZM281 181h31v1H281ZM481 181h79v1H481ZM214 182h61v1H214ZM281 182h30v1H281ZM482 182h79v1H482ZM214 183h60v1H214ZM280 183h31v1H280ZM484 183h78v1H484ZM213 184h60v1H213ZM279 184h31v1H279ZM486 184h77v1H486ZM212 185h61v1H212ZM279 185h30v1H279ZM487 185h77v1H487ZM211 186h61v1H211ZM278 186h31v1H278ZM489 186h76v1H489ZM210 187h61v1H210ZM277 187h31v1H277ZM490 187h76v1H490ZM210 188h60v1H210ZM277 188h30v1H277ZM492 188h74v1H492ZM209 189h61v1H209ZM276 189h31v1H276ZM493 189h74v1H493ZM208 190h61v1H208ZM275 190h31v1H275ZM495 190h73v1H495ZM207 191h61v1H207ZM274 191h31v1H274ZM496 191h73v1H496ZM207 192h60v1H207ZM273 192h32v1H273ZM497 192h73v1H497ZM206 193h61v1H206ZM272 193h32v1H272ZM498 193h72v1H498ZM205 194h61v1H205ZM271 194h32v1H271ZM500 194h71v1H500ZM204 195h61v1H204ZM270 195h33v1H270ZM501 195h71v1H501ZM204 196h60v1H204ZM269 196h33v1H269ZM502 196h71v1H502ZM203 197h60v1H203ZM268 197h33v1H268ZM503 197h70v1H503ZM202 198h61v1H202ZM267 198h34v1H267ZM505 198h69v1H505ZM202 199h60v1H202ZM266 199h34v1H266ZM506 199h69v1H506ZM201 200h60v1H201ZM265 200h35v1H265ZM507 200h69v1H507ZM200 201h60v1H200ZM264 201h35v1H264ZM508 201h68v1H508ZM200 202h60v1H200ZM263 202h35v1H263ZM509 202h68v1H509ZM199 203h60v1H199ZM262 203h36v1H262ZM510 203h68v1H510ZM198 204h60v1H198ZM261 204h36v1H261ZM511 204h67v1H511ZM198 205h59v1H198ZM260 205h36v1H260ZM512 205h67v1H512ZM197 206h60v1H197ZM259 206h37v1H259ZM514 206h66v1H514ZM196 207h60v1H196ZM258 207h37v1H258ZM515 207h65v1H515ZM196 208h59v1H196ZM257 208h37v1H257ZM516 208h65v1H516ZM195 209h59v1H195ZM256 209h38v1H256ZM517 209h65v1H517ZM195 210h58v1H195ZM255 210h38v1H255ZM518 210h64v1H518ZM194 211h59v1H194ZM254 211h38v1H254ZM518 211h65v1H518ZM193 212h59v1H193ZM253 212h39v1H253ZM519 212h65v1H519ZM193 213h58v1H193ZM253 213h38v1H253ZM520 213h64v1H520ZM192 214h58v1H192ZM252 214h38v1H252ZM521 214h64v1H521ZM192 215h58v1H192ZM251 215h39v1H251ZM522 215h63v1H522ZM191 216h58v1H191ZM250 216h39v1H250ZM523 216h63v1H523ZM191 217h57v1H191ZM249 217h40v1H249ZM524 217h63v1H524ZM190 218h57v1H190ZM248 218h40v1H248ZM525 218h62v1H525ZM189 219h57v1H189ZM248 219h39v1H248ZM526 219h62v1H526ZM189 220h57v1H189ZM247 220h40v1H247ZM526 220h62v1H526ZM188 221h57v1H188ZM246 221h40v1H246ZM527 221h62v1H527ZM188 222h56v1H188ZM245 222h40v1H245ZM528 222h62v1H528ZM187 223h56v1H187ZM245 223h40v1H245ZM529 223h61v1H529ZM187 224h56v1H187ZM244 224h40v1H244ZM530 224h61v1H530ZM186 225h56v1H186ZM243 225h40v1H243ZM530 225h61v1H530ZM186 226h55v1H186ZM243 226h40v1H243ZM531 226h61v1H531ZM185 227h55v1H185ZM242 227h40v1H242ZM532 227h60v1H532ZM185 228h55v1H185ZM241 228h40v1H241ZM532 228h61v1H532ZM184 229h55v1H184ZM241 229h40v1H241ZM533 229h60v1H533ZM184 230h54v1H184ZM240 230h40v1H240ZM534 230h60v1H534ZM183 231h54v1H183ZM239 231h40v1H239ZM535 231h59v1H535ZM183 232h53v1H183ZM239 232h40v1H239ZM535 232h60v1H535ZM183 233h53v1H183ZM238 233h40v1H238ZM536 233h59v1H536ZM182 234h53v1H182ZM238 234h40v1H238ZM536 234h60v1H536ZM182 235h52v1H182ZM237 235h40v1H237ZM537 235h59v1H537ZM181 236h52v1H181ZM236 236h40v1H236ZM538 236h59v1H538ZM181 237h52v1H181ZM236 237h40v1H236ZM538 237h59v1H538ZM180 238h52v1H180ZM235 238h40v1H235ZM539 238h59v1H539ZM180 239h51v1H180ZM235 239h39v1H235ZM539 239h59v1H539ZM180 240h50v1H180ZM234 240h40v1H234ZM540 240h58v1H540ZM179 241h51v1H179ZM234 241h39v1H234ZM541 241h58v1H541ZM179 242h50v1H179ZM233 242h39v1H233ZM541 242h58v1H541ZM178 243h50v1H178ZM233 243h39v1H233ZM542 243h58v1H542ZM178 244h49v1H178ZM232 244h39v1H232ZM542 244h58v1H542ZM178 245h48v1H178ZM232 245h38v1H232ZM543 245h58v1H543ZM177 246h49v1H177ZM231 246h39v1H231ZM543 246h58v1H543ZM177 247h48v1H177ZM231 247h38v1H231ZM544 247h57v1H544ZM176 248h48v1H176ZM230 248h38v1H230ZM544 248h58v1H544ZM176 249h47v1H176ZM230 249h38v1H230ZM545 249h57v1H545ZM176 250h47v1H176ZM229 250h38v1H229ZM545 250h58v1H545ZM175 251h47v1H175ZM229 251h38v1H229ZM546 251h57v1H546ZM175 252h46v1H175ZM228 252h38v1H228ZM269 252h17v1H269ZM356 252h16v1H356ZM441 252h1v1H441ZM546 252h57v1H546ZM175 253h45v1H175ZM228 253h61v1H228ZM352 253h24v1H352ZM437 253h8v1H437ZM485 253h8v1H485ZM547 253h57v1H547ZM174 254h46v1H174ZM227 254h64v1H227ZM351 254h26v1H351ZM435 254h12v1H435ZM483 254h12v1H483ZM547 254h57v1H547ZM174 255h45v1H174ZM227 255h65v1H227ZM350 255h28v1H350ZM434 255h14v1H434ZM482 255h14v1H482ZM548 255h56v1H548ZM174 256h44v1H174ZM226 256h67v1H226ZM349 256h30v1H349ZM433 256h16v1H433ZM481 256h16v1H481ZM548 256h57v1H548ZM173 257h44v1H173ZM226 257h67v1H226ZM349 257h31v1H349ZM432 257h18v1H432ZM480 257h18v1H480ZM548 257h57v1H548ZM173 258h43v1H173ZM226 258h68v1H226ZM348 258h32v1H348ZM432 258h19v1H432ZM480 258h18v1H480ZM549 258h56v1H549ZM173 259h43v1H173ZM225 259h70v1H225ZM348 259h34v1H348ZM432 259h20v1H432ZM479 259h20v1H479ZM549 259h57v1H549ZM172 260h43v1H172ZM225 260h72v1H225ZM348 260h35v1H348ZM431 260h22v1H431ZM479 260h22v1H479ZM550 260h56v1H550ZM172 261h42v1H172ZM224 261h36v1H224ZM261 261h36v1H261ZM348 261h36v1H348ZM431 261h23v1H431ZM479 261h23v1H479ZM550 261h56v1H550ZM172 262h41v1H172ZM224 262h35v1H224ZM262 262h36v1H262ZM348 262h37v1H348ZM431 262h24v1H431ZM479 262h24v1H479ZM550 262h57v1H550ZM172 263h41v1H172ZM224 263h35v1H224ZM262 263h37v1H262ZM348 263h37v1H348ZM431 263h25v1H431ZM479 263h24v1H479ZM551 263h56v1H551ZM171 264h41v1H171ZM223 264h35v1H223ZM262 264h37v1H262ZM348 264h37v1H348ZM431 264h25v1H431ZM479 264h25v1H479ZM551 264h56v1H551ZM171 265h40v1H171ZM223 265h34v1H223ZM262 265h37v1H262ZM348 265h38v1H348ZM431 265h25v1H431ZM479 265h25v1H479ZM552 265h56v1H552ZM171 266h39v1H171ZM222 266h35v1H222ZM262 266h37v1H262ZM348 266h38v1H348ZM431 266h26v1H431ZM479 266h25v1H479ZM552 266h56v1H552ZM170 267h40v1H170ZM222 267h34v1H222ZM262 267h37v1H262ZM348 267h38v1H348ZM431 267h26v1H431ZM479 267h26v1H479ZM552 267h56v1H552ZM170 268h39v1H170ZM221 268h35v1H221ZM262 268h37v1H262ZM348 268h38v1H348ZM431 268h26v1H431ZM479 268h26v1H479ZM553 268h56v1H553ZM170 269h38v1H170ZM220 269h35v1H220ZM262 269h37v1H262ZM348 269h38v1H348ZM431 269h26v1H431ZM479 269h26v1H479ZM553 269h56v1H553ZM169 270h38v1H169ZM220 270h34v1H220ZM262 270h37v1H262ZM348 270h38v1H348ZM431 270h26v1H431ZM479 270h26v1H479ZM553 270h56v1H553ZM168 271h38v1H168ZM219 271h35v1H219ZM262 271h37v1H262ZM348 271h38v1H348ZM431 271h26v1H431ZM479 271h26v1H479ZM554 271h56v1H554ZM167 272h39v1H167ZM218 272h35v1H218ZM262 272h37v1H262ZM348 272h38v1H348ZM431 272h26v1H431ZM479 272h26v1H479ZM554 272h56v1H554ZM167 273h38v1H167ZM218 273h34v1H218ZM262 273h37v1H262ZM348 273h38v1H348ZM431 273h26v1H431ZM479 273h26v1H479ZM554 273h56v1H554ZM166 274h38v1H166ZM217 274h35v1H217ZM262 274h37v1H262ZM348 274h38v1H348ZM431 274h26v1H431ZM479 274h26v1H479ZM555 274h55v1H555ZM165 275h38v1H165ZM216 275h35v1H216ZM262 275h37v1H262ZM348 275h38v1H348ZM431 275h26v1H431ZM479 275h26v1H479ZM555 275h56v1H555ZM164 276h39v1H164ZM215 276h35v1H215ZM262 276h37v1H262ZM348 276h38v1H348ZM431 276h26v1H431ZM479 276h26v1H479ZM555 276h56v1H555ZM163 277h39v1H163ZM215 277h35v1H215ZM262 277h37v1H262ZM348 277h38v1H348ZM431 277h26v1H431ZM479 277h26v1H479ZM556 277h55v1H556ZM162 278h39v1H162ZM214 278h35v1H214ZM262 278h37v1H262ZM348 278h38v1H348ZM431 278h26v1H431ZM479 278h26v1H479ZM556 278h55v1H556ZM162 279h38v1H162ZM213 279h35v1H213ZM262 279h37v1H262ZM348 279h38v1H348ZM431 279h26v1H431ZM479 279h26v1H479ZM556 279h56v1H556ZM161 280h39v1H161ZM213 280h35v1H213ZM262 280h37v1H262ZM348 280h38v1H348ZM431 280h26v1H431ZM479 280h26v1H479ZM556 280h56v1H556ZM160 281h39v1H160ZM212 281h35v1H212ZM262 281h37v1H262ZM348 281h38v1H348ZM431 281h26v1H431ZM479 281h26v1H479ZM557 281h55v1H557ZM159 282h39v1H159ZM211 282h35v1H211ZM262 282h37v1H262ZM348 282h38v1H348ZM431 282h26v1H431ZM479 282h26v1H479ZM557 282h55v1H557ZM158 283h39v1H158ZM211 283h35v1H211ZM262 283h37v1H262ZM348 283h38v1H348ZM431 283h26v1H431ZM479 283h26v1H479ZM557 283h55v1H557ZM157 284h39v1H157ZM210 284h35v1H210ZM262 284h37v1H262ZM348 284h38v1H348ZM431 284h26v1H431ZM479 284h26v1H479ZM557 284h56v1H557ZM157 285h39v1H157ZM209 285h36v1H209ZM262 285h37v1H262ZM348 285h38v1H348ZM431 285h26v1H431ZM479 285h26v1H479ZM558 285h55v1H558ZM156 286h39v1H156ZM209 286h35v1H209ZM262 286h37v1H262ZM348 286h38v1H348ZM431 286h26v1H431ZM479 286h26v1H479ZM558 286h55v1H558ZM155 287h39v1H155ZM208 287h35v1H208ZM262 287h37v1H262ZM348 287h38v1H348ZM431 287h26v1H431ZM479 287h26v1H479ZM558 287h55v1H558ZM154 288h39v1H154ZM207 288h36v1H207ZM262 288h37v1H262ZM348 288h38v1H348ZM431 288h26v1H431ZM479 288h26v1H479ZM558 288h56v1H558ZM153 289h40v1H153ZM206 289h36v1H206ZM262 289h37v1H262ZM348 289h38v1H348ZM431 289h26v1H431ZM479 289h26v1H479ZM559 289h55v1H559ZM153 290h39v1H153ZM206 290h35v1H206ZM262 290h37v1H262ZM348 290h38v1H348ZM431 290h26v1H431ZM479 290h26v1H479ZM559 290h55v1H559ZM152 291h39v1H152ZM205 291h36v1H205ZM262 291h37v1H262ZM348 291h38v1H348ZM431 291h26v1H431ZM479 291h26v1H479ZM559 291h55v1H559ZM151 292h39v1H151ZM204 292h36v1H204ZM262 292h37v1H262ZM348 292h38v1H348ZM431 292h26v1H431ZM479 292h26v1H479ZM559 292h55v1H559ZM150 293h40v1H150ZM204 293h35v1H204ZM262 293h37v1H262ZM348 293h38v1H348ZM431 293h26v1H431ZM479 293h26v1H479ZM559 293h55v1H559ZM149 294h40v1H149ZM203 294h36v1H203ZM262 294h37v1H262ZM348 294h38v1H348ZM396 294h139v1H396ZM559 294h56v1H559ZM148 295h40v1H148ZM202 295h36v1H202ZM262 295h37v1H262ZM348 295h38v1H348ZM394 295h143v1H394ZM560 295h55v1H560ZM148 296h39v1H148ZM202 296h35v1H202ZM262 296h37v1H262ZM348 296h38v1H348ZM393 296h146v1H393ZM560 296h55v1H560ZM147 297h39v1H147ZM201 297h36v1H201ZM262 297h37v1H262ZM348 297h38v1H348ZM392 297h148v1H392ZM560 297h55v1H560ZM146 298h40v1H146ZM200 298h36v1H200ZM262 298h37v1H262ZM348 298h38v1H348ZM391 298h149v1H391ZM560 298h55v1H560ZM145 299h40v1H145ZM200 299h35v1H200ZM262 299h37v1H262ZM348 299h38v1H348ZM390 299h151v1H390ZM560 299h55v1H560ZM144 300h40v1H144ZM199 300h36v1H199ZM262 300h37v1H262ZM348 300h38v1H348ZM390 300h152v1H390ZM560 300h56v1H560ZM143 301h40v1H143ZM198 301h36v1H198ZM262 301h37v1H262ZM348 301h38v1H348ZM390 301h153v1H390ZM561 301h55v1H561ZM143 302h40v1H143ZM197 302h37v1H197ZM262 302h37v1H262ZM348 302h38v1H348ZM390 302h154v1H390ZM561 302h55v1H561ZM142 303h40v1H142ZM197 303h36v1H197ZM262 303h37v1H262ZM348 303h38v1H348ZM389 303h156v1H389ZM561 303h55v1H561ZM141 304h40v1H141ZM196 304h36v1H196ZM262 304h37v1H262ZM348 304h38v1H348ZM389 304h157v1H389ZM561 304h55v1H561ZM140 305h40v1H140ZM195 305h37v1H195ZM262 305h37v1H262ZM348 305h38v1H348ZM390 305h157v1H390ZM561 305h55v1H561ZM139 306h41v1H139ZM195 306h36v1H195ZM262 306h37v1H262ZM348 306h38v1H348ZM390 306h157v1H390ZM561 306h55v1H561ZM139 307h40v1H139ZM194 307h36v1H194ZM262 307h37v1H262ZM348 307h38v1H348ZM390 307h158v1H390ZM561 307h55v1H561ZM138 308h40v1H138ZM193 308h37v1H193ZM262 308h37v1H262ZM348 308h38v1H348ZM391 308h157v1H391ZM561 308h55v1H561ZM137 309h40v1H137ZM193 309h36v1H193ZM262 309h37v1H262ZM348 309h38v1H348ZM391 309h157v1H391ZM562 309h55v1H562ZM136 310h40v1H136ZM192 310h36v1H192ZM262 310h37v1H262ZM348 310h38v1H348ZM392 310h156v1H392ZM562 310h55v1H562ZM135 311h41v1H135ZM191 311h37v1H191ZM262 311h37v1H262ZM348 311h38v1H348ZM393 311h155v1H393ZM562 311h55v1H562ZM134 312h41v1H134ZM190 312h37v1H190ZM262 312h37v1H262ZM348 312h38v1H348ZM394 312h154v1H394ZM562 312h55v1H562ZM134 313h40v1H134ZM190 313h36v1H190ZM262 313h37v1H262ZM348 313h38v1H348ZM394 313h153v1H394ZM562 313h55v1H562ZM133 314h40v1H133ZM189 314h37v1H189ZM262 314h37v1H262ZM348 314h38v1H348ZM395 314h152v1H395ZM562 314h55v1H562ZM132 315h41v1H132ZM188 315h37v1H188ZM262 315h37v1H262ZM348 315h38v1H348ZM395 315h151v1H395ZM562 315h55v1H562ZM131 316h41v1H131ZM188 316h36v1H188ZM262 316h37v1H262ZM348 316h38v1H348ZM396 316h150v1H396ZM562 316h55v1H562ZM130 317h41v1H130ZM187 317h37v1H187ZM262 317h37v1H262ZM348 317h38v1H348ZM397 317h148v1H397ZM562 317h55v1H562ZM129 318h41v1H129ZM186 318h37v1H186ZM262 318h37v1H262ZM348 318h38v1H348ZM398 318h146v1H398ZM562 318h55v1H562ZM129 319h40v1H129ZM186 319h37v1H186ZM262 319h37v1H262ZM348 319h38v1H348ZM400 319h142v1H400ZM562 319h55v1H562ZM128 320h41v1H128ZM185 320h37v1H185ZM262 320h37v1H262ZM348 320h38v1H348ZM403 320h137v1H403ZM562 320h55v1H562ZM127 321h41v1H127ZM184 321h37v1H184ZM262 321h37v1H262ZM348 321h38v1H348ZM431 321h28v1H431ZM478 321h29v1H478ZM562 321h55v1H562ZM126 322h41v1H126ZM184 322h37v1H184ZM262 322h37v1H262ZM348 322h38v1H348ZM431 322h27v1H431ZM479 322h26v1H479ZM562 322h55v1H562ZM125 323h41v1H125ZM183 323h37v1H183ZM262 323h37v1H262ZM348 323h38v1H348ZM431 323h26v1H431ZM479 323h26v1H479ZM562 323h55v1H562ZM125 324h41v1H125ZM182 324h37v1H182ZM262 324h37v1H262ZM348 324h38v1H348ZM431 324h26v1H431ZM479 324h26v1H479ZM562 324h55v1H562ZM124 325h41v1H124ZM181 325h38v1H181ZM262 325h37v1H262ZM348 325h38v1H348ZM431 325h26v1H431ZM479 325h26v1H479ZM562 325h55v1H562ZM123 326h41v1H123ZM181 326h37v1H181ZM262 326h37v1H262ZM348 326h38v1H348ZM431 326h26v1H431ZM479 326h26v1H479ZM562 326h56v1H562ZM122 327h41v1H122ZM180 327h37v1H180ZM262 327h37v1H262ZM348 327h38v1H348ZM431 327h26v1H431ZM479 327h26v1H479ZM562 327h56v1H562ZM121 328h42v1H121ZM179 328h38v1H179ZM262 328h37v1H262ZM348 328h38v1H348ZM431 328h26v1H431ZM479 328h26v1H479ZM562 328h56v1H562ZM120 329h42v1H120ZM179 329h37v1H179ZM262 329h37v1H262ZM348 329h38v1H348ZM431 329h26v1H431ZM479 329h26v1H479ZM562 329h56v1H562ZM120 330h41v1H120ZM178 330h37v1H178ZM262 330h37v1H262ZM348 330h38v1H348ZM431 330h26v1H431ZM479 330h26v1H479ZM562 330h56v1H562ZM119 331h41v1H119ZM177 331h38v1H177ZM262 331h37v1H262ZM348 331h38v1H348ZM431 331h26v1H431ZM479 331h26v1H479ZM562 331h56v1H562ZM118 332h41v1H118ZM177 332h37v1H177ZM262 332h37v1H262ZM348 332h38v1H348ZM431 332h26v1H431ZM479 332h26v1H479ZM562 332h56v1H562ZM117 333h42v1H117ZM176 333h37v1H176ZM262 333h37v1H262ZM348 333h38v1H348ZM431 333h26v1H431ZM479 333h26v1H479ZM562 333h56v1H562ZM116 334h42v1H116ZM175 334h38v1H175ZM262 334h37v1H262ZM348 334h38v1H348ZM431 334h26v1H431ZM479 334h26v1H479ZM562 334h56v1H562ZM115 335h42v1H115ZM175 335h37v1H175ZM262 335h37v1H262ZM348 335h38v1H348ZM431 335h26v1H431ZM479 335h26v1H479ZM562 335h56v1H562ZM115 336h41v1H115ZM174 336h38v1H174ZM262 336h37v1H262ZM348 336h38v1H348ZM431 336h26v1H431ZM479 336h26v1H479ZM562 336h56v1H562ZM114 337h42v1H114ZM173 337h38v1H173ZM262 337h37v1H262ZM348 337h38v1H348ZM431 337h26v1H431ZM479 337h26v1H479ZM562 337h55v1H562ZM113 338h42v1H113ZM172 338h38v1H172ZM262 338h37v1H262ZM348 338h38v1H348ZM431 338h26v1H431ZM479 338h26v1H479ZM562 338h55v1H562ZM112 339h42v1H112ZM172 339h38v1H172ZM262 339h37v1H262ZM348 339h38v1H348ZM431 339h26v1H431ZM479 339h26v1H479ZM562 339h55v1H562ZM111 340h42v1H111ZM171 340h38v1H171ZM262 340h37v1H262ZM348 340h38v1H348ZM431 340h26v1H431ZM479 340h26v1H479ZM562 340h55v1H562ZM111 341h42v1H111ZM170 341h38v1H170ZM262 341h37v1H262ZM348 341h38v1H348ZM431 341h28v1H431ZM478 341h28v1H478ZM562 341h55v1H562ZM110 342h42v1H110ZM170 342h38v1H170ZM262 342h37v1H262ZM348 342h38v1H348ZM395 342h141v1H395ZM561 342h56v1H561ZM109 343h42v1H109ZM169 343h38v1H169ZM262 343h37v1H262ZM348 343h38v1H348ZM393 343h145v1H393ZM561 343h56v1H561ZM108 344h42v1H108ZM168 344h38v1H168ZM262 344h37v1H262ZM348 344h38v1H348ZM392 344h147v1H392ZM561 344h56v1H561ZM107 345h42v1H107ZM168 345h38v1H168ZM262 345h37v1H262ZM348 345h38v1H348ZM391 345h149v1H391ZM561 345h56v1H561ZM106 346h43v1H106ZM167 346h38v1H167ZM262 346h37v1H262ZM348 346h38v1H348ZM391 346h150v1H391ZM561 346h56v1H561ZM106 347h42v1H106ZM166 347h38v1H166ZM262 347h37v1H262ZM348 347h38v1H348ZM390 347h151v1H390ZM561 347h56v1H561ZM105 348h42v1H105ZM165 348h39v1H165ZM262 348h37v1H262ZM348 348h38v1H348ZM390 348h152v1H390ZM561 348h56v1H561ZM104 349h42v1H104ZM165 349h38v1H165ZM262 349h37v1H262ZM348 349h38v1H348ZM389 349h155v1H389ZM561 349h56v1H561ZM103 350h43v1H103ZM164 350h38v1H164ZM262 350h37v1H262ZM348 350h38v1H348ZM389 350h156v1H389ZM560 350h57v1H560ZM102 351h43v1H102ZM163 351h39v1H163ZM262 351h37v1H262ZM348 351h38v1H348ZM389 351h157v1H389ZM560 351h57v1H560ZM101 352h43v1H101ZM163 352h38v1H163ZM262 352h37v1H262ZM348 352h38v1H348ZM389 352h157v1H389ZM560 352h57v1H560ZM101 353h42v1H101ZM162 353h39v1H162ZM262 353h37v1H262ZM348 353h38v1H348ZM390 353h157v1H390ZM560 353h57v1H560ZM100 354h43v1H100ZM161 354h39v1H161ZM214 354h1v1H214ZM262 354h37v1H262ZM348 354h38v1H348ZM390 354h157v1H390ZM560 354h56v1H560ZM99 355h43v1H99ZM161 355h38v1H161ZM213 355h2v1H213ZM262 355h37v1H262ZM348 355h38v1H348ZM390 355h158v1H390ZM560 355h56v1H560ZM98 356h43v1H98ZM160 356h39v1H160ZM213 356h2v1H213ZM262 356h37v1H262ZM348 356h38v1H348ZM391 356h157v1H391ZM560 356h56v1H560ZM97 357h43v1H97ZM159 357h39v1H159ZM212 357h3v1H212ZM262 357h37v1H262ZM348 357h38v1H348ZM391 357h157v1H391ZM559 357h57v1H559ZM97 358h42v1H97ZM159 358h38v1H159ZM212 358h4v1H212ZM262 358h37v1H262ZM348 358h38v1H348ZM392 358h156v1H392ZM559 358h57v1H559ZM96 359h43v1H96ZM158 359h39v1H158ZM211 359h5v1H211ZM262 359h37v1H262ZM348 359h38v1H348ZM393 359h155v1H393ZM559 359h57v1H559ZM95 360h43v1H95ZM157 360h39v1H157ZM210 360h6v1H210ZM262 360h37v1H262ZM348 360h38v1H348ZM394 360h153v1H394ZM559 360h57v1H559ZM94 361h43v1H94ZM156 361h39v1H156ZM210 361h6v1H210ZM218 361h2v1H218ZM262 361h37v1H262ZM347 361h39v1H347ZM394 361h153v1H394ZM559 361h57v1H559ZM93 362h43v1H93ZM156 362h39v1H156ZM209 362h12v1H209ZM262 362h37v1H262ZM347 362h39v1H347ZM395 362h152v1H395ZM558 362h57v1H558ZM92 363h44v1H92ZM155 363h39v1H155ZM209 363h12v1H209ZM262 363h37v1H262ZM347 363h39v1H347ZM396 363h150v1H396ZM558 363h57v1H558ZM92 364h43v1H92ZM154 364h39v1H154ZM208 364h13v1H208ZM262 364h37v1H262ZM346 364h40v1H346ZM396 364h149v1H396ZM558 364h57v1H558ZM91 365h43v1H91ZM154 365h39v1H154ZM207 365h15v1H207ZM262 365h38v1H262ZM346 365h40v1H346ZM397 365h147v1H397ZM558 365h57v1H558ZM90 366h43v1H90ZM153 366h39v1H153ZM207 366h15v1H207ZM262 366h38v1H262ZM345 366h41v1H345ZM399 366h144v1H399ZM557 366h58v1H557ZM89 367h44v1H89ZM152 367h39v1H152ZM206 367h16v1H206ZM262 367h38v1H262ZM344 367h41v1H344ZM401 367h140v1H401ZM557 367h58v1H557ZM88 368h44v1H88ZM152 368h39v1H152ZM206 368h16v1H206ZM262 368h38v1H262ZM344 368h41v1H344ZM430 368h31v1H430ZM478 368h59v1H478ZM557 368h58v1H557ZM87 369h44v1H87ZM151 369h39v1H151ZM205 369h17v1H205ZM262 369h39v1H262ZM343 369h42v1H343ZM431 369h27v1H431ZM478 369h28v1H478ZM557 369h57v1H557ZM87 370h43v1H87ZM150 370h40v1H150ZM205 370h18v1H205ZM262 370h39v1H262ZM342 370h43v1H342ZM431 370h26v1H431ZM478 370h27v1H478ZM556 370h58v1H556ZM86 371h43v1H86ZM149 371h40v1H149ZM204 371h19v1H204ZM263 371h39v1H263ZM341 371h44v1H341ZM431 371h26v1H431ZM479 371h26v1H479ZM556 371h58v1H556ZM85 372h44v1H85ZM149 372h39v1H149ZM203 372h20v1H203ZM263 372h39v1H263ZM340 372h45v1H340ZM431 372h26v1H431ZM479 372h26v1H479ZM556 372h58v1H556ZM84 373h44v1H84ZM148 373h40v1H148ZM203 373h20v1H203ZM263 373h40v1H263ZM338 373h47v1H338ZM431 373h26v1H431ZM479 373h26v1H479ZM556 373h58v1H556ZM83 374h44v1H83ZM147 374h40v1H147ZM202 374h22v1H202ZM264 374h41v1H264ZM336 374h49v1H336ZM431 374h26v1H431ZM479 374h26v1H479ZM555 374h58v1H555ZM83 375h43v1H83ZM147 375h39v1H147ZM202 375h22v1H202ZM264 375h121v1H264ZM431 375h26v1H431ZM479 375h26v1H479ZM555 375h58v1H555ZM82 376h44v1H82ZM146 376h40v1H146ZM201 376h23v1H201ZM264 376h120v1H264ZM431 376h26v1H431ZM479 376h25v1H479ZM555 376h58v1H555ZM81 377h44v1H81ZM145 377h40v1H145ZM200 377h24v1H200ZM265 377h119v1H265ZM431 377h26v1H431ZM479 377h25v1H479ZM554 377h59v1H554ZM80 378h44v1H80ZM145 378h39v1H145ZM200 378h25v1H200ZM265 378h119v1H265ZM431 378h26v1H431ZM479 378h25v1H479ZM554 378h59v1H554ZM79 379h44v1H79ZM144 379h40v1H144ZM199 379h26v1H199ZM266 379h118v1H266ZM431 379h26v1H431ZM479 379h25v1H479ZM554 379h58v1H554ZM78 380h45v1H78ZM143 380h40v1H143ZM199 380h26v1H199ZM266 380h117v1H266ZM431 380h26v1H431ZM479 380h25v1H479ZM553 380h59v1H553ZM78 381h44v1H78ZM143 381h39v1H143ZM198 381h28v1H198ZM267 381h116v1H267ZM431 381h26v1H431ZM479 381h25v1H479ZM553 381h59v1H553ZM77 382h44v1H77ZM142 382h40v1H142ZM198 382h28v1H198ZM267 382h116v1H267ZM431 382h26v1H431ZM479 382h25v1H479ZM553 382h59v1H553ZM76 383h44v1H76ZM141 383h40v1H141ZM197 383h29v1H197ZM268 383h114v1H268ZM431 383h26v1H431ZM479 383h25v1H479ZM552 383h60v1H552ZM75 384h44v1H75ZM140 384h40v1H140ZM196 384h31v1H196ZM268 384h114v1H268ZM431 384h26v1H431ZM479 384h25v1H479ZM552 384h59v1H552ZM74 385h45v1H74ZM140 385h40v1H140ZM196 385h31v1H196ZM269 385h112v1H269ZM431 385h26v1H431ZM479 385h25v1H479ZM552 385h59v1H552ZM73 386h45v1H73ZM139 386h40v1H139ZM195 386h32v1H195ZM270 386h111v1H270ZM431 386h26v1H431ZM479 386h25v1H479ZM551 386h60v1H551ZM73 387h44v1H73ZM138 387h41v1H138ZM195 387h33v1H195ZM271 387h109v1H271ZM431 387h26v1H431ZM479 387h25v1H479ZM551 387h60v1H551ZM72 388h44v1H72ZM138 388h40v1H138ZM194 388h34v1H194ZM271 388h109v1H271ZM431 388h26v1H431ZM479 388h25v1H479ZM551 388h59v1H551ZM71 389h45v1H71ZM137 389h40v1H137ZM193 389h35v1H193ZM272 389h107v1H272ZM431 389h26v1H431ZM479 389h25v1H479ZM550 389h60v1H550ZM70 390h45v1H70ZM136 390h41v1H136ZM193 390h36v1H193ZM273 390h105v1H273ZM431 390h26v1H431ZM479 390h25v1H479ZM550 390h60v1H550ZM69 391h45v1H69ZM136 391h40v1H136ZM192 391h37v1H192ZM273 391h105v1H273ZM431 391h26v1H431ZM479 391h25v1H479ZM549 391h60v1H549ZM69 392h44v1H69ZM135 392h40v1H135ZM192 392h37v1H192ZM274 392h103v1H274ZM431 392h26v1H431ZM479 392h25v1H479ZM549 392h60v1H549ZM68 393h45v1H68ZM134 393h41v1H134ZM191 393h39v1H191ZM275 393h101v1H275ZM431 393h26v1H431ZM479 393h25v1H479ZM549 393h60v1H549ZM67 394h45v1H67ZM134 394h40v1H134ZM191 394h39v1H191ZM276 394h99v1H276ZM431 394h26v1H431ZM479 394h25v1H479ZM548 394h61v1H548ZM66 395h45v1H66ZM133 395h40v1H133ZM190 395h40v1H190ZM277 395h97v1H277ZM431 395h26v1H431ZM479 395h25v1H479ZM548 395h60v1H548ZM65 396h45v1H65ZM132 396h41v1H132ZM189 396h42v1H189ZM278 396h95v1H278ZM432 396h25v1H432ZM479 396h25v1H479ZM547 396h61v1H547ZM64 397h45v1H64ZM131 397h41v1H131ZM189 397h42v1H189ZM279 397h93v1H279ZM432 397h25v1H432ZM480 397h24v1H480ZM547 397h61v1H547ZM64 398h45v1H64ZM131 398h40v1H131ZM188 398h44v1H188ZM280 398h91v1H280ZM433 398h24v1H433ZM480 398h24v1H480ZM546 398h61v1H546ZM63 399h45v1H63ZM130 399h41v1H130ZM188 399h44v1H188ZM281 399h89v1H281ZM433 399h24v1H433ZM481 399h23v1H481ZM546 399h61v1H546ZM62 400h45v1H62ZM129 400h41v1H129ZM187 400h46v1H187ZM282 400h87v1H282ZM434 400h22v1H434ZM482 400h22v1H482ZM545 400h62v1H545ZM61 401h45v1H61ZM129 401h40v1H129ZM186 401h47v1H186ZM284 401h83v1H284ZM435 401h21v1H435ZM483 401h21v1H483ZM545 401h61v1H545ZM60 402h46v1H60ZM128 402h41v1H128ZM186 402h47v1H186ZM285 402h80v1H285ZM436 402h20v1H436ZM484 402h20v1H484ZM544 402h62v1H544ZM59 403h46v1H59ZM127 403h41v1H127ZM185 403h49v1H185ZM287 403h76v1H287ZM436 403h19v1H436ZM484 403h19v1H484ZM544 403h62v1H544ZM59 404h45v1H59ZM127 404h41v1H127ZM185 404h49v1H185ZM288 404h73v1H288ZM437 404h18v1H437ZM485 404h18v1H485ZM543 404h62v1H543ZM58 405h45v1H58ZM126 405h41v1H126ZM184 405h51v1H184ZM290 405h69v1H290ZM438 405h16v1H438ZM485 405h17v1H485ZM543 405h62v1H543ZM57 406h46v1H57ZM125 406h41v1H125ZM184 406h51v1H184ZM293 406h63v1H293ZM439 406h14v1H439ZM486 406h15v1H486ZM542 406h63v1H542ZM56 407h46v1H56ZM124 407h42v1H124ZM183 407h53v1H183ZM295 407h58v1H295ZM440 407h12v1H440ZM487 407h13v1H487ZM542 407h62v1H542ZM55 408h46v1H55ZM124 408h41v1H124ZM182 408h54v1H182ZM299 408h50v1H299ZM442 408h8v1H442ZM489 408h9v1H489ZM541 408h63v1H541ZM54 409h46v1H54ZM123 409h41v1H123ZM182 409h55v1H182ZM306 409h36v1H306ZM492 409h3v1H492ZM541 409h63v1H541ZM54 410h45v1H54ZM122 410h42v1H122ZM181 410h56v1H181ZM540 410h63v1H540ZM53 411h46v1H53ZM122 411h41v1H122ZM181 411h57v1H181ZM540 411h63v1H540ZM52 412h46v1H52ZM121 412h41v1H121ZM180 412h58v1H180ZM539 412h64v1H539ZM51 413h46v1H51ZM120 413h42v1H120ZM181 413h58v1H181ZM538 413h64v1H538ZM50 414h46v1H50ZM120 414h41v1H120ZM181 414h58v1H181ZM538 414h64v1H538ZM50 415h46v1H50ZM119 415h41v1H119ZM182 415h58v1H182ZM537 415h64v1H537ZM49 416h46v1H49ZM118 416h42v1H118ZM182 416h58v1H182ZM537 416h64v1H537ZM49 417h45v1H49ZM118 417h41v1H118ZM183 417h58v1H183ZM536 417h65v1H536ZM49 418h44v1H49ZM117 418h41v1H117ZM183 418h59v1H183ZM535 418h65v1H535ZM49 419h44v1H49ZM116 419h42v1H116ZM183 419h59v1H183ZM535 419h65v1H535ZM50 420h42v1H50ZM115 420h42v1H115ZM184 420h59v1H184ZM534 420h65v1H534ZM50 421h41v1H50ZM115 421h42v1H115ZM184 421h59v1H184ZM534 421h65v1H534ZM51 422h39v1H51ZM114 422h42v1H114ZM185 422h59v1H185ZM533 422h65v1H533ZM52 423h37v1H52ZM113 423h42v1H113ZM185 423h60v1H185ZM532 423h66v1H532ZM53 424h36v1H53ZM113 424h42v1H113ZM186 424h59v1H186ZM532 424h65v1H532ZM54 425h34v1H54ZM112 425h42v1H112ZM186 425h60v1H186ZM531 425h66v1H531ZM54 426h33v1H54ZM111 426h42v1H111ZM187 426h60v1H187ZM530 426h67v1H530ZM55 427h31v1H55ZM111 427h42v1H111ZM187 427h60v1H187ZM529 427h67v1H529ZM56 428h30v1H56ZM110 428h42v1H110ZM188 428h60v1H188ZM529 428h67v1H529ZM57 429h28v1H57ZM109 429h42v1H109ZM188 429h61v1H188ZM528 429h67v1H528ZM58 430h26v1H58ZM109 430h42v1H109ZM189 430h60v1H189ZM527 430h68v1H527ZM59 431h24v1H59ZM108 431h42v1H108ZM189 431h61v1H189ZM526 431h68v1H526ZM60 432h22v1H60ZM107 432h42v1H107ZM190 432h61v1H190ZM526 432h68v1H526ZM61 433h21v1H61ZM106 433h43v1H106ZM190 433h61v1H190ZM525 433h68v1H525ZM63 434h18v1H63ZM106 434h42v1H106ZM191 434h61v1H191ZM524 434h69v1H524ZM64 435h16v1H64ZM105 435h42v1H105ZM192 435h61v1H192ZM523 435h69v1H523ZM65 436h14v1H65ZM104 436h43v1H104ZM192 436h62v1H192ZM522 436h70v1H522ZM66 437h13v1H66ZM104 437h42v1H104ZM193 437h61v1H193ZM522 437h69v1H522ZM68 438h10v1H68ZM103 438h43v1H103ZM193 438h62v1H193ZM521 438h70v1H521ZM69 439h8v1H69ZM102 439h43v1H102ZM194 439h62v1H194ZM520 439h70v1H520ZM72 440h3v1H72ZM102 440h42v1H102ZM194 440h63v1H194ZM519 440h70v1H519ZM101 441h43v1H101ZM195 441h63v1H195ZM518 441h71v1H518ZM100 442h43v1H100ZM196 442h62v1H196ZM517 442h71v1H517ZM100 443h42v1H100ZM196 443h63v1H196ZM516 443h72v1H516ZM99 444h43v1H99ZM197 444h63v1H197ZM515 444h72v1H515ZM98 445h43v1H98ZM197 445h64v1H197ZM515 445h72v1H515ZM97 446h43v1H97ZM198 446h64v1H198ZM514 446h72v1H514ZM97 447h43v1H97ZM199 447h64v1H199ZM513 447h72v1H513ZM96 448h43v1H96ZM199 448h65v1H199ZM512 448h73v1H512ZM95 449h43v1H95ZM200 449h65v1H200ZM511 449h73v1H511ZM95 450h43v1H95ZM201 450h65v1H201ZM510 450h74v1H510ZM94 451h43v1H94ZM201 451h66v1H201ZM509 451h74v1H509ZM93 452h43v1H93ZM202 452h66v1H202ZM508 452h74v1H508ZM93 453h43v1H93ZM203 453h66v1H203ZM506 453h76v1H506ZM93 454h42v1H93ZM203 454h67v1H203ZM505 454h76v1H505ZM93 455h42v1H93ZM204 455h67v1H204ZM504 455h76v1H504ZM93 456h41v1H93ZM205 456h67v1H205ZM503 456h77v1H503ZM94 457h39v1H94ZM205 457h68v1H205ZM502 457h77v1H502ZM95 458h38v1H95ZM206 458h68v1H206ZM501 458h77v1H501ZM96 459h36v1H96ZM207 459h68v1H207ZM500 459h78v1H500ZM97 460h34v1H97ZM208 460h69v1H208ZM498 460h79v1H498ZM97 461h34v1H97ZM208 461h70v1H208ZM497 461h79v1H497ZM97 462h33v1H97ZM209 462h70v1H209ZM496 462h79v1H496ZM98 463h31v1H98ZM210 463h70v1H210ZM495 463h80v1H495ZM99 464h30v1H99ZM211 464h71v1H211ZM493 464h81v1H493ZM100 465h28v1H100ZM211 465h72v1H211ZM492 465h81v1H492ZM101 466h26v1H101ZM212 466h72v1H212ZM491 466h82v1H491ZM102 467h25v1H102ZM213 467h73v1H213ZM489 467h83v1H489ZM104 468h22v1H104ZM214 468h73v1H214ZM488 468h83v1H488ZM105 469h20v1H105ZM214 469h74v1H214ZM487 469h83v1H487ZM107 470h18v1H107ZM215 470h75v1H215ZM485 470h84v1H485ZM109 471h15v1H109ZM216 471h75v1H216ZM484 471h85v1H484ZM110 472h13v1H110ZM217 472h76v1H217ZM482 472h86v1H482ZM112 473h11v1H112ZM218 473h76v1H218ZM480 473h87v1H480ZM113 474h9v1H113ZM218 474h78v1H218ZM479 474h87v1H479ZM115 475h6v1H115ZM219 475h79v1H219ZM477 475h88v1H477ZM220 476h79v1H220ZM476 476h89v1H476ZM221 477h80v1H221ZM474 477h90v1H474ZM222 478h81v1H222ZM472 478h91v1H472ZM223 479h82v1H223ZM470 479h92v1H470ZM223 480h83v1H223ZM468 480h93v1H468ZM224 481h84v1H224ZM466 481h94v1H466ZM225 482h85v1H225ZM464 482h95v1H464ZM226 483h87v1H226ZM462 483h96v1H462ZM227 484h88v1H227ZM460 484h97v1H460ZM228 485h89v1H228ZM458 485h99v1H458ZM229 486h90v1H229ZM456 486h100v1H456ZM230 487h92v1H230ZM453 487h102v1H453ZM231 488h93v1H231ZM451 488h103v1H451ZM232 489h95v1H232ZM448 489h105v1H448ZM233 490h96v1H233ZM445 490h107v1H445ZM234 491h98v1H234ZM442 491h109v1H442ZM235 492h100v1H235ZM439 492h111v1H439ZM236 493h103v1H236ZM436 493h113v1H436ZM237 494h105v1H237ZM432 494h116v1H432ZM238 495h108v1H238ZM428 495h119v1H428ZM239 496h112v1H239ZM424 496h121v1H424ZM240 497h116v1H240ZM419 497h125v1H419ZM241 498h121v1H241ZM413 498h130v1H413ZM242 499h128v1H242ZM404 499h138v1H404ZM244 500h297v1H244ZM245 501h295v1H245ZM246 502h293v1H246ZM247 503h291v1H247ZM248 504h288v1H248ZM249 505h286v1H249ZM251 506h283v1H251ZM252 507h281v1H252ZM253 508h278v1H253ZM254 509h276v1H254ZM256 510h273v1H256ZM257 511h271v1H257ZM258 512h268v1H258ZM260 513h265v1H260ZM261 514h263v1H261ZM263 515h259v1H263ZM264 516h257v1H264ZM265 517h254v1H265ZM267 518h251v1H267ZM268 519h248v1H268ZM270 520h245v1H270ZM271 521h242v1H271ZM273 522h239v1H273ZM275 523h235v1H275ZM276 524h232v1H276ZM278 525h229v1H278ZM280 526h225v1H280ZM281 527h222v1H281ZM283 528h218v1H283ZM285 529h215v1H285ZM287 530h211v1H287ZM289 531h207v1H289ZM291 532h203v1H291ZM293 533h199v1H293ZM295 534h195v1H295ZM297 535h191v1H297ZM299 536h186v1H299ZM301 537h182v1H301ZM304 538h177v1H304ZM306 539h173v1H306ZM308 540h168v1H308ZM311 541h163v1H311ZM314 542h157v1H314ZM316 543h152v1H316ZM319 544h146v1H319ZM322 545h140v1H322ZM325 546h134v1H325ZM329 547h127v1H329ZM332 548h121v1H332ZM336 549h113v1H336ZM340 550h105v1H340ZM344 551h97v1H344ZM349 552h87v1H349ZM354 553h76v1H354ZM361 554h63v1H361ZM369 555h47v1H369ZM385 556h15v1H385Z"/></svg>
