<svg xmlns="http://www.w3.org/2000/svg" width="420" height="400" viewBox="0 0 420 400" role="img" aria-labelledby="title desc">
<title id="title">BOJ problem solving</title><desc id="desc">Screenshot snapshot: 101 solved problems. Bronze 46, Silver 22, Gold 30, Platinum 3, Diamond 0, Ruby 0. Selected overlapping tags: implementation 44, math 38, graph theory 18, dynamic programming 15. Account tier is not provided.</desc>
<style>svg{--text:#1f2328;--muted:#59636e;--accent:#0969a8}text{font-family:Segoe UI,Arial,sans-serif}</style>
<rect x=".5" y=".5" width="419" height="399" rx="12" fill="none" stroke="#d1d9e0"/>
<path d="M24 24v19" stroke="#0969a8" stroke-width="3" stroke-linecap="round"/>
<text x="36" y="39" font-size="18" fill="#0969a8" font-weight="700">BOJ</text>
<text x="396" y="38" font-size="12" fill="#59636e" text-anchor="end">Problem solving</text>
<text x="24" y="99" font-size="38" fill="#1f2328" font-weight="650">101</text><text x="24" y="120" font-size="12" fill="#59636e" >Solved problems</text>
<text x="396" y="97" font-size="13" fill="#59636e" text-anchor="end">Bronze–Ruby</text><text x="396" y="120" font-size="11" fill="#59636e" text-anchor="end">Difficulty distribution</text>
<path d="M24 136h372 M24 291h372" stroke="#d8dee4"/><text x="24" y="168" font-size="12" fill="#59636e" >Bronze</text><rect x="106" y="158" width="245" height="9" rx="3" fill="#eaeef2"/>
<rect x="106" y="158" width="245" height="9" rx="3" fill="#9a560d"/>
<text x="396" y="168" font-size="13" fill="#1f2328" text-anchor="end" font-weight="600">46</text>
<text x="24" y="190" font-size="12" fill="#59636e" >Silver</text><rect x="106" y="180" width="245" height="9" rx="3" fill="#eaeef2"/>
<rect x="106" y="180" width="117.17391304347827" height="9" rx="3" fill="#526e85"/>
<text x="396" y="190" font-size="13" fill="#1f2328" text-anchor="end" font-weight="600">22</text>
<text x="24" y="212" font-size="12" fill="#59636e" >Gold</text><rect x="106" y="202" width="245" height="9" rx="3" fill="#eaeef2"/>
<rect x="106" y="202" width="159.7826086956522" height="9" rx="3" fill="#896300"/>
<text x="396" y="212" font-size="13" fill="#1f2328" text-anchor="end" font-weight="600">30</text>
<text x="24" y="234" font-size="12" fill="#59636e" >Platinum</text><rect x="106" y="224" width="245" height="9" rx="3" fill="#eaeef2"/>
<rect x="106" y="224" width="15.978260869565217" height="9" rx="3" fill="#087a59"/>
<text x="396" y="234" font-size="13" fill="#1f2328" text-anchor="end" font-weight="600">3</text>
<text x="24" y="256" font-size="12" fill="#59636e" >Diamond</text><rect x="106" y="246" width="245" height="9" rx="3" fill="#eaeef2"/>

<text x="396" y="256" font-size="13" fill="#1f2328" text-anchor="end" font-weight="600">0</text>
<text x="24" y="278" font-size="12" fill="#59636e" >Ruby</text><rect x="106" y="268" width="245" height="9" rx="3" fill="#eaeef2"/>

<text x="396" y="278" font-size="13" fill="#1f2328" text-anchor="end" font-weight="600">0</text>
<text x="24" y="313" font-size="12" fill="#59636e" >Implementation</text><text x="186" y="313" font-size="13" fill="#1f2328" text-anchor="end" font-weight="600">44</text>
<text x="218" y="313" font-size="12" fill="#59636e" >Math</text><text x="396" y="313" font-size="13" fill="#1f2328" text-anchor="end" font-weight="600">38</text>
<text x="24" y="340" font-size="12" fill="#59636e" >Graph theory</text><text x="186" y="340" font-size="13" fill="#1f2328" text-anchor="end" font-weight="600">18</text>
<text x="218" y="340" font-size="12" fill="#59636e" >Dynamic programming</text><text x="396" y="340" font-size="13" fill="#1f2328" text-anchor="end" font-weight="600">15</text>
<path d="M24 360h372" stroke="#d8dee4"/>
<text x="24" y="382" font-size="10" fill="#687480" >Selected tags overlap</text>
<text x="396" y="382" font-size="10" fill="#687480" text-anchor="end">Snapshot · 2026-09-07</text>
</svg>
